<svg width="232" height="76" viewBox="0 0 232 76" fill="none" xmlns="http://www.w3.org/2000/svg">
<path fill-rule="evenodd" clip-rule="evenodd" d="M124.777 12.0197C124.897 12.1901 125 12.3737 125.084 12.5686C130.044 13.9067 133.695 18.3349 133.695 23.5771C133.695 29.8757 128.424 35 121.945 35C118.563 35 115.51 33.6028 113.365 31.3715H105.219C103.466 31.3715 102.04 29.9849 102.04 28.2806C102.04 27.3018 102.511 26.4283 103.244 25.8616C102.511 25.2949 102.04 24.4215 102.04 23.4426C102.04 22.4638 102.511 21.5904 103.244 21.0237C102.511 20.457 102.04 19.5835 102.04 18.6047C102.04 17.6259 102.511 16.7525 103.244 16.1857C102.511 15.619 102.04 14.7456 102.04 13.7668C102.04 12.0625 103.466 10.6759 105.219 10.6759H107.022C106.67 10.1785 106.463 9.57679 106.463 8.92884C106.463 8.28089 106.67 7.67917 107.022 7.18181H101.487C99.734 7.18181 98.3077 5.7952 98.3077 4.0909C98.3077 2.38661 99.734 1 101.487 1H118.42C120.174 1 121.6 2.38661 121.6 4.0909C121.6 4.73885 121.393 5.34057 121.041 5.83794H126.576C128.329 5.83794 129.755 7.22454 129.755 8.92884C129.755 10.6331 128.329 12.0197 126.576 12.0197H124.777ZM128.373 8.92884C128.373 7.96555 127.567 7.18181 126.576 7.18181H109.643C108.652 7.18181 107.846 7.96555 107.846 8.92884C107.846 9.89213 108.652 10.6759 109.643 10.6759H122.153H126.576C127.567 10.6759 128.373 9.89213 128.373 8.92884ZM99.69 4.0909C99.69 5.05419 100.496 5.83794 101.487 5.83794H118.42C119.411 5.83794 120.217 5.05419 120.217 4.0909C120.217 3.12762 119.411 2.34387 118.42 2.34387H101.487C100.496 2.34387 99.69 3.12762 99.69 4.0909ZM122.153 12.0197H105.219C104.228 12.0197 103.422 12.8035 103.422 13.7668C103.422 14.7301 104.228 15.5138 105.219 15.5138H113.631C115.759 13.4395 118.701 12.1542 121.945 12.1542C122.279 12.1542 122.61 12.1686 122.937 12.1953C122.698 12.0826 122.431 12.0197 122.153 12.0197ZM112.45 16.8577H105.219C104.228 16.8577 103.422 17.6414 103.422 18.6047C103.422 19.5681 104.228 20.3517 105.219 20.3517H110.673C111.059 19.0814 111.665 17.9027 112.45 16.8577ZM110.356 21.6956H105.219C104.228 21.6956 103.422 22.4793 103.422 23.4426C103.422 24.406 104.228 25.1897 105.219 25.1897H110.313C110.236 24.6627 110.196 24.1245 110.196 23.5771C110.196 22.9363 110.251 22.3079 110.356 21.6956ZM103.422 28.2806C103.422 29.2439 104.228 30.0276 105.219 30.0276H112.254C111.511 28.9758 110.944 27.7977 110.596 26.5335H105.219C104.228 26.5335 103.422 27.3172 103.422 28.2806ZM111.578 23.5771C111.578 29.1347 116.229 33.6561 121.945 33.6561C127.662 33.6561 132.313 29.1347 132.313 23.5771C132.313 18.0195 127.662 13.4981 121.945 13.4981C116.229 13.4981 111.578 18.0195 111.578 23.5771ZM120.182 21.2802C120.182 22.0967 120.972 22.7609 121.942 22.7609C123.795 22.7609 125.302 24.1228 125.302 25.7969C125.302 27.2219 124.209 28.42 122.742 28.7452V29.0811C122.742 29.5105 122.384 29.8588 121.942 29.8588C121.5 29.8588 121.142 29.5105 121.142 29.0811V28.7452C119.675 28.42 118.583 27.2219 118.583 25.7969C118.583 25.3675 118.941 25.0193 119.383 25.0193C119.824 25.0193 120.182 25.3675 120.182 25.7969C120.182 26.6134 120.972 27.2776 121.942 27.2776C122.912 27.2776 123.702 26.6134 123.702 25.7969C123.702 24.9804 122.912 24.3161 121.942 24.3161C120.09 24.3161 118.583 22.9542 118.583 21.2802C118.583 19.8553 119.675 18.6571 121.142 18.3319V17.9275C121.142 17.4981 121.5 17.1499 121.942 17.1499C122.384 17.1499 122.742 17.4981 122.742 17.9275V18.3319C124.209 18.6571 125.302 19.8553 125.302 21.2802C125.302 21.7096 124.943 22.0579 124.502 22.0579C124.06 22.0579 123.702 21.7096 123.702 21.2802C123.702 20.4637 122.912 19.7995 121.942 19.7995C120.972 19.7995 120.182 20.4637 120.182 21.2802Z" fill="#18DF9A"/>
<path d="M125.084 12.5686L124.854 12.6677L124.902 12.7785L125.019 12.8099L125.084 12.5686ZM124.777 12.0197V11.7697H124.295L124.572 12.1637L124.777 12.0197ZM113.365 31.3715L113.545 31.1982L113.471 31.1215H113.365V31.3715ZM103.244 25.8616L103.397 26.0594L103.652 25.8616L103.397 25.6639L103.244 25.8616ZM103.244 21.0237L103.397 21.2214L103.652 21.0237L103.397 20.8259L103.244 21.0237ZM103.244 16.1857L103.397 16.3835L103.652 16.1857L103.397 15.988L103.244 16.1857ZM107.022 10.6759V10.9259H107.505L107.226 10.5315L107.022 10.6759ZM107.022 7.18181L107.226 7.32619L107.505 6.93181H107.022V7.18181ZM121.041 5.83794L120.837 5.69355L120.558 6.08794H121.041V5.83794ZM113.631 15.5138V15.7638H113.733L113.805 15.6928L113.631 15.5138ZM122.937 12.1953L122.917 12.4444L123.043 11.9691L122.937 12.1953ZM112.45 16.8577L112.65 17.0078L112.95 16.6077H112.45V16.8577ZM110.673 20.3517V20.6017H110.859L110.913 20.4243L110.673 20.3517ZM110.356 21.6956L110.602 21.7378L110.652 21.4456H110.356V21.6956ZM110.313 25.1897V25.4397H110.602L110.561 25.1536L110.313 25.1897ZM112.254 30.0276V30.2776H112.737L112.458 29.8834L112.254 30.0276ZM110.596 26.5335L110.837 26.4671L110.786 26.2835H110.596V26.5335ZM122.742 28.7452L122.688 28.5011L122.492 28.5445V28.7452H122.742ZM121.142 28.7452H121.392V28.5445L121.196 28.5011L121.142 28.7452ZM121.142 18.3319L121.196 18.576L121.392 18.5326V18.3319H121.142ZM122.742 18.3319H122.492V18.5326L122.688 18.576L122.742 18.3319ZM125.313 12.4695C125.222 12.2589 125.111 12.0602 124.981 11.8758L124.572 12.1637C124.682 12.3199 124.777 12.4886 124.854 12.6677L125.313 12.4695ZM133.945 23.5771C133.945 18.2145 130.211 13.6928 125.149 12.3272L125.019 12.8099C129.877 14.1206 133.445 18.4552 133.445 23.5771H133.945ZM121.945 35.25C128.556 35.25 133.945 30.0204 133.945 23.5771H133.445C133.445 29.731 128.293 34.75 121.945 34.75V35.25ZM113.184 31.5448C115.376 33.8237 118.493 35.25 121.945 35.25V34.75C118.633 34.75 115.645 33.3819 113.545 31.1982L113.184 31.5448ZM105.219 31.6215H113.365V31.1215H105.219V31.6215ZM101.79 28.2806C101.79 30.1295 103.335 31.6215 105.219 31.6215V31.1215C103.598 31.1215 102.29 29.8402 102.29 28.2806H101.79ZM103.091 25.6639C102.301 26.2746 101.79 27.2192 101.79 28.2806H102.29C102.29 27.3844 102.721 26.582 103.397 26.0594L103.091 25.6639ZM101.79 23.4426C101.79 24.5041 102.301 25.4486 103.091 26.0594L103.397 25.6639C102.721 25.1412 102.29 24.3388 102.29 23.4426H101.79ZM103.091 20.8259C102.301 21.4367 101.79 22.3812 101.79 23.4426H102.29C102.29 22.5465 102.721 21.7441 103.397 21.2214L103.091 20.8259ZM101.79 18.6047C101.79 19.6661 102.301 20.6107 103.091 21.2214L103.397 20.8259C102.721 20.3033 102.29 19.5009 102.29 18.6047H101.79ZM103.091 15.988C102.301 16.5987 101.79 17.5433 101.79 18.6047H102.29C102.29 17.7085 102.721 16.9062 103.397 16.3835L103.091 15.988ZM101.79 13.7668C101.79 14.8282 102.301 15.7727 103.091 16.3835L103.397 15.988C102.721 15.4653 102.29 14.663 102.29 13.7668H101.79ZM105.219 10.4259C103.335 10.4259 101.79 11.9178 101.79 13.7668H102.29C102.29 12.2071 103.598 10.9259 105.219 10.9259V10.4259ZM107.022 10.4259H105.219V10.9259H107.022V10.4259ZM106.213 8.92884C106.213 9.63092 106.437 10.2827 106.818 10.8203L107.226 10.5315C106.902 10.0743 106.713 9.52265 106.713 8.92884H106.213ZM106.818 7.03742C106.437 7.57498 106.213 8.22674 106.213 8.92884H106.713C106.713 8.33504 106.902 7.78337 107.226 7.32619L106.818 7.03742ZM101.487 7.43181H107.022V6.93181H101.487V7.43181ZM98.0577 4.0909C98.0577 5.93987 99.6026 7.43181 101.487 7.43181V6.93181C99.8653 6.93181 98.5577 5.65053 98.5577 4.0909H98.0577ZM101.487 0.75C99.6026 0.75 98.0577 2.24193 98.0577 4.0909H98.5577C98.5577 2.53128 99.8653 1.25 101.487 1.25V0.75ZM118.42 0.75H101.487V1.25H118.42V0.75ZM121.85 4.0909C121.85 2.24193 120.305 0.75 118.42 0.75V1.25C120.042 1.25 121.35 2.53128 121.35 4.0909H121.85ZM121.245 5.98232C121.626 5.44476 121.85 4.793 121.85 4.0909H121.35C121.35 4.6847 121.161 5.23637 120.837 5.69355L121.245 5.98232ZM126.576 5.58794H121.041V6.08794H126.576V5.58794ZM130.005 8.92884C130.005 7.07987 128.461 5.58794 126.576 5.58794V6.08794C128.198 6.08794 129.505 7.36921 129.505 8.92884H130.005ZM126.576 12.2697C128.461 12.2697 130.005 10.7778 130.005 8.92884H129.505C129.505 10.4885 128.198 11.7697 126.576 11.7697V12.2697ZM124.777 12.2697H126.576V11.7697H124.777V12.2697ZM126.576 7.43181C127.436 7.43181 128.123 8.11022 128.123 8.92884H128.623C128.623 7.82089 127.698 6.93181 126.576 6.93181V7.43181ZM109.643 7.43181H126.576V6.93181H109.643V7.43181ZM108.096 8.92884C108.096 8.11022 108.783 7.43181 109.643 7.43181V6.93181C108.52 6.93181 107.596 7.82089 107.596 8.92884H108.096ZM109.643 10.4259C108.783 10.4259 108.096 9.74746 108.096 8.92884H107.596C107.596 10.0368 108.52 10.9259 109.643 10.9259V10.4259ZM122.153 10.4259H109.643V10.9259H122.153V10.4259ZM126.576 10.4259H122.153V10.9259H126.576V10.4259ZM128.123 8.92884C128.123 9.74746 127.436 10.4259 126.576 10.4259V10.9259C127.698 10.9259 128.623 10.0368 128.623 8.92884H128.123ZM101.487 5.58794C100.627 5.58794 99.94 4.90952 99.94 4.0909H99.44C99.44 5.19886 100.365 6.08794 101.487 6.08794V5.58794ZM118.42 5.58794H101.487V6.08794H118.42V5.58794ZM119.967 4.0909C119.967 4.90952 119.28 5.58794 118.42 5.58794V6.08794C119.543 6.08794 120.467 5.19886 120.467 4.0909H119.967ZM118.42 2.59387C119.28 2.59387 119.967 3.27228 119.967 4.0909H120.467C120.467 2.98295 119.543 2.09387 118.42 2.09387V2.59387ZM101.487 2.59387H118.42V2.09387H101.487V2.59387ZM99.94 4.0909C99.94 3.27228 100.627 2.59387 101.487 2.59387V2.09387C100.365 2.09387 99.44 2.98295 99.44 4.0909H99.94ZM105.219 12.2697H122.153V11.7697H105.219V12.2697ZM103.672 13.7668C103.672 12.9482 104.36 12.2697 105.219 12.2697V11.7697C104.097 11.7697 103.172 12.6588 103.172 13.7668H103.672ZM105.219 15.2638C104.36 15.2638 103.672 14.5854 103.672 13.7668H103.172C103.172 14.8747 104.097 15.7638 105.219 15.7638V15.2638ZM113.631 15.2638H105.219V15.7638H113.631V15.2638ZM121.945 11.9042C118.634 11.9042 115.63 13.2163 113.456 15.3348L113.805 15.6928C115.888 13.6628 118.768 12.4042 121.945 12.4042V11.9042ZM122.957 11.9461C122.624 11.9189 122.287 11.9042 121.945 11.9042V12.4042C122.272 12.4042 122.596 12.4183 122.917 12.4444L122.957 11.9461ZM122.153 12.2697C122.393 12.2697 122.624 12.3241 122.83 12.4214L123.043 11.9691C122.772 11.8412 122.469 11.7697 122.153 11.7697V12.2697ZM105.219 17.1077H112.45V16.6077H105.219V17.1077ZM103.672 18.6047C103.672 17.7861 104.36 17.1077 105.219 17.1077V16.6077C104.097 16.6077 103.172 17.4968 103.172 18.6047H103.672ZM105.219 20.1017C104.36 20.1017 103.672 19.4234 103.672 18.6047H103.172C103.172 19.7127 104.097 20.6017 105.219 20.6017V20.1017ZM110.673 20.1017H105.219V20.6017H110.673V20.1017ZM112.25 16.7076C111.448 17.7753 110.828 18.9802 110.434 20.2792L110.913 20.4243C111.289 19.1827 111.882 18.0301 112.65 17.0078L112.25 16.7076ZM105.219 21.9456H110.356V21.4456H105.219V21.9456ZM103.672 23.4426C103.672 22.624 104.36 21.9456 105.219 21.9456V21.4456C104.097 21.4456 103.172 22.3346 103.172 23.4426H103.672ZM105.219 24.9397C104.36 24.9397 103.672 24.2613 103.672 23.4426H103.172C103.172 24.5507 104.097 25.4397 105.219 25.4397V24.9397ZM110.313 24.9397H105.219V25.4397H110.313V24.9397ZM109.946 23.5771C109.946 24.1369 109.987 24.6872 110.066 25.2258L110.561 25.1536C110.486 24.6382 110.446 24.112 110.446 23.5771H109.946ZM110.11 21.6534C110.002 22.2794 109.946 22.9218 109.946 23.5771H110.446C110.446 22.9507 110.5 22.3365 110.602 21.7378L110.11 21.6534ZM105.219 29.7776C104.36 29.7776 103.672 29.0993 103.672 28.2806H103.172C103.172 29.3886 104.097 30.2776 105.219 30.2776V29.7776ZM112.254 29.7776H105.219V30.2776H112.254V29.7776ZM110.355 26.6C110.711 27.8927 111.29 29.0971 112.05 30.1718L112.458 29.8834C111.731 28.8545 111.177 27.7026 110.837 26.4671L110.355 26.6ZM105.219 26.7835H110.596V26.2835H105.219V26.7835ZM103.672 28.2806C103.672 27.4619 104.36 26.7835 105.219 26.7835V26.2835C104.097 26.2835 103.172 27.1726 103.172 28.2806H103.672ZM121.945 33.4061C116.36 33.4061 111.828 28.99 111.828 23.5771H111.328C111.328 29.2794 116.097 33.9061 121.945 33.9061V33.4061ZM132.063 23.5771C132.063 28.99 127.531 33.4061 121.945 33.4061V33.9061C127.793 33.9061 132.563 29.2794 132.563 23.5771H132.063ZM121.945 13.7481C127.531 13.7481 132.063 18.1642 132.063 23.5771H132.563C132.563 17.8748 127.793 13.2481 121.945 13.2481V13.7481ZM111.828 23.5771C111.828 18.1642 116.36 13.7481 121.945 13.7481V13.2481C116.097 13.2481 111.328 17.8748 111.328 23.5771H111.828ZM121.942 22.5109C121.068 22.5109 120.432 21.9199 120.432 21.2802H119.932C119.932 22.2734 120.876 23.0109 121.942 23.0109V22.5109ZM125.552 25.7969C125.552 23.9615 123.908 22.5109 121.942 22.5109V23.0109C123.681 23.0109 125.052 24.2841 125.052 25.7969H125.552ZM122.796 28.9893C124.358 28.6431 125.552 27.358 125.552 25.7969H125.052C125.052 27.0857 124.06 28.197 122.688 28.5011L122.796 28.9893ZM122.992 29.0811V28.7452H122.492V29.0811H122.992ZM121.942 30.1088C122.515 30.1088 122.992 29.6552 122.992 29.0811H122.492C122.492 29.3659 122.252 29.6088 121.942 29.6088V30.1088ZM120.892 29.0811C120.892 29.6552 121.369 30.1088 121.942 30.1088V29.6088C121.632 29.6088 121.392 29.3659 121.392 29.0811H120.892ZM120.892 28.7452V29.0811H121.392V28.7452H120.892ZM118.333 25.7969C118.333 27.358 119.526 28.6431 121.088 28.9893L121.196 28.5011C119.824 28.197 118.833 27.0857 118.833 25.7969H118.333ZM119.383 24.7693C118.81 24.7693 118.333 25.2228 118.333 25.7969H118.833C118.833 25.5121 119.072 25.2693 119.383 25.2693V24.7693ZM120.432 25.7969C120.432 25.2228 119.956 24.7693 119.383 24.7693V25.2693C119.693 25.2693 119.932 25.5121 119.932 25.7969H120.432ZM121.942 27.0276C121.068 27.0276 120.432 26.4366 120.432 25.7969H119.932C119.932 26.7901 120.876 27.5276 121.942 27.5276V27.0276ZM123.452 25.7969C123.452 26.4366 122.817 27.0276 121.942 27.0276V27.5276C123.008 27.5276 123.952 26.7901 123.952 25.7969H123.452ZM121.942 24.5661C122.817 24.5661 123.452 25.1571 123.452 25.7969H123.952C123.952 24.8036 123.008 24.0661 121.942 24.0661V24.5661ZM118.333 21.2802C118.333 23.1155 119.976 24.5661 121.942 24.5661V24.0661C120.203 24.0661 118.833 22.7929 118.833 21.2802H118.333ZM121.088 18.0878C119.526 18.4341 118.333 19.7191 118.333 21.2802H118.833C118.833 19.9915 119.824 18.8802 121.196 18.576L121.088 18.0878ZM120.892 17.9275V18.3319H121.392V17.9275H120.892ZM121.942 16.8999C121.369 16.8999 120.892 17.3534 120.892 17.9275H121.392C121.392 17.6427 121.632 17.3999 121.942 17.3999V16.8999ZM122.992 17.9275C122.992 17.3534 122.515 16.8999 121.942 16.8999V17.3999C122.252 17.3999 122.492 17.6427 122.492 17.9275H122.992ZM122.992 18.3319V17.9275H122.492V18.3319H122.992ZM125.552 21.2802C125.552 19.7191 124.358 18.4341 122.796 18.0878L122.688 18.576C124.06 18.8802 125.052 19.9915 125.052 21.2802H125.552ZM124.502 22.3079C125.075 22.3079 125.552 21.8543 125.552 21.2802H125.052C125.052 21.565 124.812 21.8079 124.502 21.8079V22.3079ZM123.452 21.2802C123.452 21.8543 123.929 22.3079 124.502 22.3079V21.8079C124.191 21.8079 123.952 21.565 123.952 21.2802H123.452ZM121.942 20.0495C122.817 20.0495 123.452 20.6405 123.452 21.2802H123.952C123.952 20.287 123.008 19.5495 121.942 19.5495V20.0495ZM120.432 21.2802C120.432 20.6405 121.068 20.0495 121.942 20.0495V19.5495C120.876 19.5495 119.932 20.287 119.932 21.2802H120.432Z" fill="#18DF9A"/>
<path d="M18.0862 52.008H15.6382V63H12.8782V52.008H11.3182V49.776H12.8782V48.84C12.8782 47.32 13.2782 46.216 14.0782 45.528C14.8942 44.824 16.1662 44.472 17.8942 44.472V46.752C17.0622 46.752 16.4782 46.912 16.1422 47.232C15.8062 47.536 15.6382 48.072 15.6382 48.84V49.776H18.0862V52.008ZM21.9029 48.024C21.4069 48.024 20.9909 47.856 20.6549 47.52C20.3189 47.184 20.1509 46.768 20.1509 46.272C20.1509 45.776 20.3189 45.36 20.6549 45.024C20.9909 44.688 21.4069 44.52 21.9029 44.52C22.3829 44.52 22.7909 44.688 23.1269 45.024C23.4629 45.36 23.6309 45.776 23.6309 46.272C23.6309 46.768 23.4629 47.184 23.1269 47.52C22.7909 47.856 22.3829 48.024 21.9029 48.024ZM23.2469 49.776V63H20.5109V49.776H23.2469ZM33.5111 49.56C34.5511 49.56 35.4791 49.776 36.2951 50.208C37.1271 50.64 37.7751 51.28 38.2391 52.128C38.7031 52.976 38.9351 54 38.9351 55.2V63H36.2231V55.608C36.2231 54.424 35.9271 53.52 35.3351 52.896C34.7431 52.256 33.9351 51.936 32.9111 51.936C31.8871 51.936 31.0711 52.256 30.4631 52.896C29.8711 53.52 29.5751 54.424 29.5751 55.608V63H26.8391V49.776H29.5751V51.288C30.0231 50.744 30.5911 50.32 31.2791 50.016C31.9831 49.712 32.7271 49.56 33.5111 49.56ZM41.513 56.328C41.513 55 41.785 53.824 42.329 52.8C42.889 51.776 43.641 50.984 44.585 50.424C45.545 49.848 46.601 49.56 47.753 49.56C48.793 49.56 49.697 49.768 50.465 50.184C51.249 50.584 51.873 51.088 52.337 51.696V49.776H55.097V63H52.337V61.032C51.873 61.656 51.241 62.176 50.441 62.592C49.641 63.008 48.729 63.216 47.705 63.216C46.569 63.216 45.529 62.928 44.585 62.352C43.641 61.76 42.889 60.944 42.329 59.904C41.785 58.848 41.513 57.656 41.513 56.328ZM52.337 56.376C52.337 55.464 52.145 54.672 51.761 54C51.393 53.328 50.905 52.816 50.297 52.464C49.689 52.112 49.033 51.936 48.329 51.936C47.625 51.936 46.969 52.112 46.361 52.464C45.753 52.8 45.257 53.304 44.873 53.976C44.505 54.632 44.321 55.416 44.321 56.328C44.321 57.24 44.505 58.04 44.873 58.728C45.257 59.416 45.753 59.944 46.361 60.312C46.985 60.664 47.641 60.84 48.329 60.84C49.033 60.84 49.689 60.664 50.297 60.312C50.905 59.96 51.393 59.448 51.761 58.776C52.145 58.088 52.337 57.288 52.337 56.376ZM65.3626 49.56C66.4026 49.56 67.3306 49.776 68.1466 50.208C68.9786 50.64 69.6266 51.28 70.0906 52.128C70.5546 52.976 70.7866 54 70.7866 55.2V63H68.0746V55.608C68.0746 54.424 67.7786 53.52 67.1866 52.896C66.5946 52.256 65.7866 51.936 64.7626 51.936C63.7386 51.936 62.9226 52.256 62.3146 52.896C61.7226 53.52 61.4266 54.424 61.4266 55.608V63H58.6906V49.776H61.4266V51.288C61.8746 50.744 62.4426 50.32 63.1306 50.016C63.8346 49.712 64.5786 49.56 65.3626 49.56ZM73.3646 56.376C73.3646 55.016 73.6366 53.824 74.1806 52.8C74.7406 51.76 75.5086 50.96 76.4846 50.4C77.4606 49.84 78.5806 49.56 79.8446 49.56C81.4446 49.56 82.7646 49.944 83.8046 50.712C84.8606 51.464 85.5726 52.544 85.9406 53.952H82.9886C82.7486 53.296 82.3646 52.784 81.8366 52.416C81.3086 52.048 80.6446 51.864 79.8446 51.864C78.7246 51.864 77.8286 52.264 77.1566 53.064C76.5006 53.848 76.1726 54.952 76.1726 56.376C76.1726 57.8 76.5006 58.912 77.1566 59.712C77.8286 60.512 78.7246 60.912 79.8446 60.912C81.4286 60.912 82.4766 60.216 82.9886 58.824H85.9406C85.5566 60.168 84.8366 61.24 83.7806 62.04C82.7246 62.824 81.4126 63.216 79.8446 63.216C78.5806 63.216 77.4606 62.936 76.4846 62.376C75.5086 61.8 74.7406 61 74.1806 59.976C73.6366 58.936 73.3646 57.736 73.3646 56.376ZM100.787 56.064C100.787 56.56 100.755 57.008 100.691 57.408H90.5872C90.6672 58.464 91.0592 59.312 91.7632 59.952C92.4672 60.592 93.3312 60.912 94.3552 60.912C95.8272 60.912 96.8672 60.296 97.4752 59.064H100.427C100.027 60.28 99.2992 61.28 98.2432 62.064C97.2032 62.832 95.9072 63.216 94.3552 63.216C93.0912 63.216 91.9552 62.936 90.9472 62.376C89.9552 61.8 89.1712 61 88.5952 59.976C88.0352 58.936 87.7552 57.736 87.7552 56.376C87.7552 55.016 88.0272 53.824 88.5712 52.8C89.1312 51.76 89.9072 50.96 90.8992 50.4C91.9072 49.84 93.0592 49.56 94.3552 49.56C95.6032 49.56 96.7152 49.832 97.6912 50.376C98.6672 50.92 99.4272 51.688 99.9712 52.68C100.515 53.656 100.787 54.784 100.787 56.064ZM97.9312 55.2C97.9152 54.192 97.5552 53.384 96.8512 52.776C96.1472 52.168 95.2752 51.864 94.2352 51.864C93.2912 51.864 92.4832 52.168 91.8112 52.776C91.1392 53.368 90.7392 54.176 90.6112 55.2H97.9312ZM102.568 54.624C102.568 52.992 102.944 51.528 103.696 50.232C104.464 48.936 105.496 47.928 106.792 47.208C108.104 46.472 109.536 46.104 111.088 46.104C112.864 46.104 114.44 46.544 115.816 47.424C117.208 48.288 118.216 49.52 118.84 51.12H115.552C115.12 50.24 114.52 49.584 113.752 49.152C112.984 48.72 112.096 48.504 111.088 48.504C109.984 48.504 109 48.752 108.136 49.248C107.272 49.744 106.592 50.456 106.096 51.384C105.616 52.312 105.376 53.392 105.376 54.624C105.376 55.856 105.616 56.936 106.096 57.864C106.592 58.792 107.272 59.512 108.136 60.024C109 60.52 109.984 60.768 111.088 60.768C112.096 60.768 112.984 60.552 113.752 60.12C114.52 59.688 115.12 59.032 115.552 58.152H118.84C118.216 59.752 117.208 60.984 115.816 61.848C114.44 62.712 112.864 63.144 111.088 63.144C109.52 63.144 108.088 62.784 106.792 62.064C105.496 61.328 104.464 60.312 103.696 59.016C102.944 57.72 102.568 56.256 102.568 54.624ZM127.778 63.216C126.53 63.216 125.402 62.936 124.394 62.376C123.386 61.8 122.594 61 122.018 59.976C121.442 58.936 121.154 57.736 121.154 56.376C121.154 55.032 121.45 53.84 122.042 52.8C122.634 51.76 123.442 50.96 124.466 50.4C125.49 49.84 126.634 49.56 127.898 49.56C129.162 49.56 130.306 49.84 131.33 50.4C132.354 50.96 133.162 51.76 133.754 52.8C134.346 53.84 134.642 55.032 134.642 56.376C134.642 57.72 134.338 58.912 133.73 59.952C133.122 60.992 132.29 61.8 131.234 62.376C130.194 62.936 129.042 63.216 127.778 63.216ZM127.778 60.84C128.482 60.84 129.138 60.672 129.746 60.336C130.37 60 130.874 59.496 131.258 58.824C131.642 58.152 131.834 57.336 131.834 56.376C131.834 55.416 131.65 54.608 131.282 53.952C130.914 53.28 130.426 52.776 129.818 52.44C129.21 52.104 128.554 51.936 127.85 51.936C127.146 51.936 126.49 52.104 125.882 52.44C125.29 52.776 124.818 53.28 124.466 53.952C124.114 54.608 123.938 55.416 123.938 56.376C123.938 57.8 124.298 58.904 125.018 59.688C125.754 60.456 126.674 60.84 127.778 60.84ZM144.019 49.56C145.059 49.56 145.987 49.776 146.803 50.208C147.635 50.64 148.283 51.28 148.747 52.128C149.211 52.976 149.443 54 149.443 55.2V63H146.731V55.608C146.731 54.424 146.435 53.52 145.843 52.896C145.251 52.256 144.443 51.936 143.419 51.936C142.395 51.936 141.579 52.256 140.971 52.896C140.379 53.52 140.083 54.424 140.083 55.608V63H137.347V49.776H140.083V51.288C140.531 50.744 141.099 50.32 141.787 50.016C142.491 49.712 143.235 49.56 144.019 49.56ZM156.125 52.008V59.328C156.125 59.824 156.237 60.184 156.461 60.408C156.701 60.616 157.101 60.72 157.661 60.72H159.341V63H157.181C155.949 63 155.005 62.712 154.349 62.136C153.693 61.56 153.365 60.624 153.365 59.328V52.008H151.805V49.776H153.365V46.488H156.125V49.776H159.341V52.008H156.125ZM164.599 51.696C164.999 51.024 165.527 50.504 166.183 50.136C166.855 49.752 167.647 49.56 168.559 49.56V52.392H167.863C166.791 52.392 165.975 52.664 165.415 53.208C164.871 53.752 164.599 54.696 164.599 56.04V63H161.863V49.776H164.599V51.696ZM176.809 63.216C175.561 63.216 174.433 62.936 173.425 62.376C172.417 61.8 171.625 61 171.049 59.976C170.473 58.936 170.185 57.736 170.185 56.376C170.185 55.032 170.481 53.84 171.073 52.8C171.665 51.76 172.473 50.96 173.497 50.4C174.521 49.84 175.665 49.56 176.929 49.56C178.193 49.56 179.337 49.84 180.361 50.4C181.385 50.96 182.193 51.76 182.785 52.8C183.377 53.84 183.673 55.032 183.673 56.376C183.673 57.72 183.369 58.912 182.761 59.952C182.153 60.992 181.321 61.8 180.265 62.376C179.225 62.936 178.073 63.216 176.809 63.216ZM176.809 60.84C177.513 60.84 178.169 60.672 178.777 60.336C179.401 60 179.905 59.496 180.289 58.824C180.673 58.152 180.865 57.336 180.865 56.376C180.865 55.416 180.681 54.608 180.313 53.952C179.945 53.28 179.457 52.776 178.849 52.44C178.241 52.104 177.585 51.936 176.881 51.936C176.177 51.936 175.521 52.104 174.913 52.44C174.321 52.776 173.849 53.28 173.497 53.952C173.145 54.608 172.969 55.416 172.969 56.376C172.969 57.8 173.329 58.904 174.049 59.688C174.785 60.456 175.705 60.84 176.809 60.84ZM189.114 45.24V63H186.378V45.24H189.114ZM195.442 45.24V63H192.706V45.24H195.442ZM211.154 56.064C211.154 56.56 211.122 57.008 211.058 57.408H200.954C201.034 58.464 201.426 59.312 202.13 59.952C202.834 60.592 203.698 60.912 204.722 60.912C206.194 60.912 207.234 60.296 207.842 59.064H210.794C210.394 60.28 209.666 61.28 208.61 62.064C207.57 62.832 206.274 63.216 204.722 63.216C203.458 63.216 202.322 62.936 201.314 62.376C200.322 61.8 199.538 61 198.962 59.976C198.402 58.936 198.122 57.736 198.122 56.376C198.122 55.016 198.394 53.824 198.938 52.8C199.498 51.76 200.274 50.96 201.266 50.4C202.274 49.84 203.426 49.56 204.722 49.56C205.97 49.56 207.082 49.832 208.058 50.376C209.034 50.92 209.794 51.688 210.338 52.68C210.882 53.656 211.154 54.784 211.154 56.064ZM208.298 55.2C208.282 54.192 207.922 53.384 207.218 52.776C206.514 52.168 205.642 51.864 204.602 51.864C203.658 51.864 202.85 52.168 202.178 52.776C201.506 53.368 201.106 54.176 200.978 55.2H208.298ZM216.583 51.696C216.983 51.024 217.511 50.504 218.167 50.136C218.839 49.752 219.631 49.56 220.543 49.56V52.392H219.847C218.775 52.392 217.959 52.664 217.399 53.208C216.855 53.752 216.583 54.696 216.583 56.04V63H213.847V49.776H216.583V51.696Z" fill="white"/>
</svg>
